<svg xmlns="http://www.w3.org/2000/svg" xmlns:xlink="http://www.w3.org/1999/xlink" viewBox="0,0,256,256" width="50px" height="50px" fill-rule="nonzero"><g fill="#ea905a" fill-rule="nonzero" stroke="none" stroke-width="1" stroke-linecap="butt" stroke-linejoin="miter" stroke-miterlimit="10" stroke-dasharray="" stroke-dashoffset="0" font-family="none" font-weight="none" font-size="none" text-anchor="none" style="mix-blend-mode: normal"><g transform="scale(5.12,5.12)"><path d="M49.3,26.5l-11.2,-3.6l-3.6,-11.2c-0.1,-0.4 -0.5,-0.7 -1,-0.7c-0.5,0 -0.8,0.3 -1,0.7l-3.6,11.2l-11.2,3.6c-0.4,0.1 -0.7,0.5 -0.7,1c0,0.5 0.3,0.8 0.7,1l11.2,3.6l3.6,11.2c0.1,0.4 0.5,0.7 1,0.7c0.5,0 0.8,-0.3 1,-0.7l3.6,-11.2l11.2,-3.6c0.4,-0.1 0.7,-0.5 0.7,-1c0,-0.5 -0.3,-0.8 -0.7,-1zM1.7,13.9l7.8,2.6l2.6,7.8c0.1,0.4 0.5,0.7 0.9,0.7c0.4,0 0.8,-0.3 0.9,-0.7l2.6,-7.8l7.8,-2.6c0.4,-0.1 0.7,-0.5 0.7,-0.9c0,-0.4 -0.3,-0.8 -0.7,-0.9l-7.8,-2.6l-2.6,-7.8c-0.1,-0.4 -0.5,-0.7 -0.9,-0.7c-0.4,0 -0.8,0.3 -0.9,0.7l-2.6,7.8l-7.8,2.6c-0.4,0.1 -0.7,0.5 -0.7,0.9c0,0.4 0.3,0.8 0.7,0.9zM17.3,39l-5.5,-1.8l-1.8,-5.5c-0.2,-0.4 -0.6,-0.7 -1,-0.7c-0.4,0 -0.8,0.3 -0.9,0.7l-1.8,5.5l-5.6,1.8c-0.4,0.2 -0.7,0.6 -0.7,1c0,0.4 0.3,0.8 0.7,0.9l5.5,1.8l1.8,5.5c0.2,0.5 0.6,0.8 1,0.8c0.4,0 0.8,-0.3 0.9,-0.7l1.8,-5.5l5.5,-1.8c0.4,-0.1 0.7,-0.5 0.7,-0.9c0,-0.4 -0.2,-0.9 -0.6,-1.1z"></path></g></g></svg>